Freelancers 2012 DVDRiP XviD - ILLUMINATI

IMDB: http://www.imdb.com/title/tt1815708/

Video
ID                                       : 0
Format                                   : MPEG-4 Visual
Format profile                           : Advanced Simple@L5
Format settings, BVOP                    : 2
Format settings, QPel                    : No
Format settings, GMC                     : No warppoints
Format settings, Matrix                  : Default (H.263)
Muxing mode                              : Packed bitstream
Codec ID                                 : XVID
Codec ID/Hint                            : XviD
Duration                                 : 1h 36mn
Bit rate                                 : 1 573 Kbps
Width                                    : 720 pixels
Height                                   : 304 pixels
Display aspect ratio                     : 2.35:1
Frame rate                               : 23.976 fps
Color space                              : YUV
Chroma subsampling                       : 4:2:0
Bit depth                                : 8 bits
Scan type                                : Progressive
Compression mode                         : Lossy
Bits/(Pixel*Frame)                       : 0.300
Stream size                              : 1.06 GiB (77%)
Writing library                          : XviD 64

Audio
ID                                       : 1
Format                                   : AC-3
Format/Info                              : Audio Coding 3
Mode extension                           : CM (complete main)
Format settings, Endianness              : Big
Codec ID                                 : 2000
Duration                                 : 1h 36mn
Bit rate mode                            : Constant
Bit rate                                 : 448 Kbps
Channel(s)                               : 6 channels
Channel positions                        : Front: L C R, Side: L R, LFE
Sampling rate                            : 48.0 KHz
Bit depth                                : 16 bits
Compression mode                         : Lossy
Stream size                              : 309 MiB (22%)
Alignment                                : Aligned on interleaves
Interleave, duration                     : 42 ms (1.00 video frame)


Source: Retail R1 DVD


Poster:

 
http://i.imgur.com/ds964.jpg


Screenshots:

 
http://i.imgur.com/6NxKl.png

 
http://i.imgur.com/qbndM.png

 
http://i.imgur.com/KtEgg.png


ENJOY!